<svg width="14" height="12" viewBox="0 0 14 12" fill="none" xmlns="http://www.w3.org/2000/svg">
<path d="M13.375 9.875H4.25C4.18125 9.875 4.125 9.93125 4.125 10V10.875C4.125 10.9438 4.18125 11 4.25 11H13.375C13.4438 11 13.5 10.9438 13.5 10.875V10C13.5 9.93125 13.4438 9.875 13.375 9.875ZM13.375 1H4.25C4.18125 1 4.125 1.05625 4.125 1.125V2C4.125 2.06875 4.18125 2.125 4.25 2.125H13.375C13.4438 2.125 13.5 2.06875 13.5 2V1.125C13.5 1.05625 13.4438 1 13.375 1ZM13.375 5.4375H4.25C4.18125 5.4375 4.125 5.49375 4.125 5.5625V6.4375C4.125 6.50625 4.18125 6.5625 4.25 6.5625H13.375C13.4438 6.5625 13.5 6.50625 13.5 6.4375V5.5625C13.5 5.49375 13.4438 5.4375 13.375 5.4375ZM2.375 9.125H0.5625C0.528125 9.125 0.5 9.15312 0.5 9.1875V9.71875C0.5 9.75313 0.528125 9.78125 0.5625 9.78125H1.69375V10.1016H1.13594C1.10156 10.1016 1.07344 10.1297 1.07344 10.1641V10.6953C1.07344 10.7297 1.10156 10.7578 1.13594 10.7578H1.69375V11.0938H0.5625C0.528125 11.0938 0.5 11.1219 0.5 11.1562V11.6875C0.5 11.7219 0.528125 11.75 0.5625 11.75H2.375C2.40937 11.75 2.4375 11.7219 2.4375 11.6875V9.1875C2.4375 9.15312 2.40937 9.125 2.375 9.125ZM0.5625 0.9375H1.15625V2.8125C1.15625 2.84687 1.18437 2.875 1.21875 2.875H1.84375C1.87812 2.875 1.90625 2.84687 1.90625 2.8125V0.375C1.90625 0.30625 1.85 0.25 1.78125 0.25H0.5625C0.528125 0.25 0.5 0.278125 0.5 0.3125V0.875C0.5 0.909375 0.528125 0.9375 0.5625 0.9375ZM2.375 4.6875H0.5625C0.528125 4.6875 0.5 4.71562 0.5 4.75V5.3125C0.5 5.34688 0.528125 5.375 0.5625 5.375H1.63125L0.532812 6.58906C0.512095 6.61233 0.500447 6.64228 0.5 6.67344V7.25C0.5 7.28438 0.528125 7.3125 0.5625 7.3125H2.375C2.40937 7.3125 2.4375 7.28438 2.4375 7.25V6.6875C2.4375 6.65312 2.40937 6.625 2.375 6.625H1.30625L2.40469 5.41094C2.42541 5.38767 2.43705 5.35772 2.4375 5.32656V4.75C2.4375 4.71562 2.40937 4.6875 2.375 4.6875Z" fill="#B5F5EC"/>
</svg>
